<svg xmlns="http://www.w3.org/2000/svg" width="126" height="29"><title>Boxbee</title><path d="M48.264 6.905c3.384 0 5.18 2.07 5.18 4.42 0 1.38-.484 2.208-1.244 2.968 1.105.828 1.795 1.933 1.795 3.52 0 2.763-2.347 5.042-5.87 5.042h-5.8c-.827 0-1.518-.622-1.518-1.45V8.355c0-.83.69-1.45 1.52-1.45h5.937zm-4.42 2.693v3.66h4.282c1.312 0 2.14-.622 2.14-1.796 0-1.105-.897-1.795-2.14-1.795l-4.28-.07zm0 6.42v4.144h4.282c1.657 0 2.762-.83 2.762-2.14 0-1.312-1.036-2.072-2.762-2.072l-4.28.07zm19.058 7.113c-3.52 0-6.283-2.69-6.283-6.003s2.76-5.938 6.28-5.938c3.52 0 6.283 2.623 6.283 5.937s-2.762 6.007-6.284 6.007zm0-9.18c-1.864 0-3.383 1.52-3.383 3.246s1.45 3.314 3.38 3.314c1.933 0 3.383-1.59 3.383-3.315s-1.52-3.245-3.384-3.245zm13.74 5.455l-2.968 3.246c-.276.345-.76.55-1.174.55-.898 0-1.52-.69-1.52-1.45 0-.274.14-.62.346-.896l3.245-3.59-3.172-3.522c-.207-.205-.345-.55-.345-.895 0-.76.69-1.45 1.52-1.45.483 0 .898.207 1.174.552l2.83 3.175 2.832-3.175c.275-.345.69-.552 1.173-.552.896 0 1.518.69 1.518 1.45 0 .345-.137.69-.345.897l-3.176 3.522 3.244 3.59c.21.277.348.622.348.898 0 .76-.62 1.45-1.52 1.45-.413 0-.896-.207-1.172-.552l-2.83-3.245zM85.206 7.25c0-.76.69-1.45 1.52-1.45.827 0 1.518.69 1.518 1.45v5.248c.552-.553 1.657-1.243 3.176-1.243 3.313 0 6.144 2.624 6.144 5.938 0 3.314-2.693 6.007-6.076 6.007-1.657 0-2.762-.69-3.452-1.243 0 .553-.553 1.243-1.45 1.243-.83 0-1.52-.69-1.52-1.45l.14-14.5zm6.145 13.257c1.936 0 3.386-1.588 3.386-3.314s-1.45-3.245-3.383-3.245-3.313 1.38-3.313 3.245c0 1.864 1.38 3.314 3.313 3.314zm11.74-2.14c.277 1.243 1.658 2.14 3.108 2.14 1.105 0 1.795-.207 2.14-.483.346-.207.69-.345 1.105-.345.83 0 1.38.55 1.38 1.31 0 .62-.343.964-.826 1.31-.414.21-1.657.9-3.936.9-3.52 0-6.282-2.696-6.282-6.01s2.83-5.87 6.145-5.87c3.382 0 5.937 2.694 5.937 5.387 0 .965-.76 1.656-1.796 1.656h-6.974zm0-2.348h6.077c-.207-1.04-1.38-2.21-3.038-2.21-1.52.07-2.763 1.1-3.04 2.21zm14.156 2.344c.276 1.243 1.657 2.14 3.107 2.14 1.106 0 1.796-.207 2.14-.483.347-.206.69-.344 1.106-.344.83 0 1.38.55 1.38 1.31 0 .622-.345.967-.828 1.312-.415.207-1.66.897-3.936.897-3.522 0-6.283-2.693-6.283-6.007 0-3.313 2.83-5.87 6.145-5.87 3.383 0 5.938 2.695 5.938 5.388 0 .966-.76 1.657-1.795 1.657h-6.973zm0-2.348h6.076c-.207-1.037-1.38-2.21-3.04-2.21-1.517.07-2.76 1.104-3.036 2.21zM28.38 7.594H3.175C1.38 7.594 0 8.907 0 10.634c0 1.726 1.45 3.106 3.176 3.106H28.31c1.726 0 3.176-1.31 3.176-3.107 0-1.795-1.38-3.038-3.107-3.038zM3.175 6.144H28.31c1.726 0 3.176-1.31 3.176-3.106C31.486 1.38 30.036 0 28.31 0H3.176C1.38 0 0 1.312 0 3.107c0 1.795 1.45 3.038 3.176 3.038zm8.217 16.64H3.176C1.38 22.787 0 24.17 0 25.894 0 27.55 1.45 29 3.176 29h8.148c.07-2.348.07-5.11.07-6.214zm16.986 0H20.16v6.078h8.148c1.726 0 3.176-1.312 3.176-3.107.07-1.588-1.38-2.97-3.107-2.97zm0-7.594H3.175C1.38 15.19 0 16.502 0 18.298c0 1.657 1.45 3.107 3.176 3.107h8.286c.414-2.072 2.14-3.59 4.28-3.59 2.072 0 3.798 1.518 4.282 3.59h8.286c1.726 0 3.176-1.312 3.176-3.107 0-1.796-1.38-3.108-3.107-3.108z" fill="#fff" fill-rule="evenodd"/></svg>