<svg xmlns="http://www.w3.org/2000/svg" width="150" height="34"><title>Meadow</title><path d="M145.05 21.417l3.194-11.155c.118-.41.16-.876.392-1.207.207-.296.628-.44.955-.65.14.102.276.206.41.31-1.57 5.46-3.135 10.922-4.703 16.384l-.676.036c-1.35-4.475-2.7-8.95-4.047-13.425l-.322-.044-4.02 13.426-.462.027c-.198-.383-.467-.747-.585-1.154-1.363-4.708-2.718-9.42-4.024-14.143-.11-.395.144-.89.23-1.34.326.35.83.644.95 1.053 1.19 3.98 2.317 7.976 3.597 12.443l4.112-13.725.712-.04 3.968 13.21.322-.01zM54.334 25.13l-4.488-13.125-.34.018c-.604 3.115-1.204 6.23-1.81 9.346-.174.885-.304 1.79-.58 2.646-.112.353-.555.6-.848.896l-.516-.29L49.12 8.275c.242-.026.484-.05.727-.077l4.804 14.118 4.804-14.09.715.008 3.4 16.37c-1.32.423-1.404-.38-1.542-1.096-.652-3.398-1.295-6.797-1.95-10.194-.095-.494-.243-.977-.45-1.798l-4.654 13.61h-.638zm13.833-1.427c2.606 0 4.897-.033 7.186.027.48.013.952.372 1.428.572-.444.173-.89.487-1.336.494-2.812.046-5.624.023-8.634.023v-6.237c0-2.88.035-5.76-.02-8.64-.02-1.063.263-1.577 1.417-1.553 2.454.05 4.91-.016 7.364.047.41.01.814.43 1.22.66-.394.19-.78.534-1.18.546-2.025.06-4.055.074-6.08.018-1.054-.03-1.353.38-1.383 1.4-.138 4.712-.166 4.71 4.455 4.713.748 0 1.5-.04 2.238.053.28.035.52.388.778.595-.266.2-.527.564-.8.574-1.706.062-3.417.11-5.12.032-1.2-.054-1.61.37-1.55 1.558.082 1.636.02 3.278.02 5.118zM102.94 8.638c-1.575-.212-3.187-.12-4.776-.248-1.358-.11-1.893.342-1.857 1.79.09 3.726.03 7.455.03 11.183 0 3.457 0 3.457 3.444 3.446.75 0 1.496.02 2.24-.007 4.22-.16 7.616-3.515 7.875-7.77.248-4.083-2.81-7.84-6.953-8.397zm5.57 8.627c-.203 3.34-2.688 5.925-6.29 6.355-1.408.17-2.852.028-4.405.028V9.618c1.938.095 3.827-.054 5.602.328 3.347.72 5.312 3.736 5.093 7.32zm12.14-9.008c-4.723.013-8.428 3.76-8.378 8.474.05 4.67 3.72 8.35 8.352 8.376 4.664.022 8.495-3.77 8.514-8.424.02-4.63-3.814-8.435-8.487-8.422zm-.027 15.652c-3.94-.017-7.21-3.35-7.162-7.3.05-3.993 3.3-7.217 7.256-7.198 3.988.018 7.1 3.216 7.096 7.29-.003 4.032-3.18 7.22-7.186 7.205zM86.88 8.18l-.602.067-7.24 16.23c.166.157.33.316.496.476.403-.395 1.067-.734 1.166-1.195.65-3.02 2.593-3.814 5.372-3.352.208.033.432.034.638 0 2.943-.517 5.082.27 5.738 3.5.03.15.092.362.204.42.38.19.787.323 1.183.48.084-.117.17-.23.253-.347l-7.21-16.28zm-4.07 10.93l3.792-8.707c1.35 3.16 2.494 5.843 3.716 8.706h-7.51zM22.937 5.508c.632-.737 1.143-1.4 1.725-1.995.79-.807 1.253-.803 2.036-.034 1.295 1.272 2.564 2.572 3.86 3.845.687.675.713 1.323-.003 1.97-.62.563-1.257 1.106-2 1.756 1.045 1.058 1.915 1.94 2.79 2.82.688.695 1.392 1.375 2.07 2.08.8.832.808 1.32-.006 2.14-1.548 1.56-3.118 3.1-4.79 4.76.65.66 1.233 1.243 1.806 1.836.808.837.825 1.226.037 2.027-1.25 1.27-2.51 2.53-3.78 3.778-.802.788-1.19.77-2.03-.04-.594-.575-1.18-1.16-1.9-1.872-1.536 1.565-2.966 3.04-4.414 4.5-1.22 1.23-1.49 1.227-2.72-.014-1.448-1.456-2.88-2.928-4.657-4.74-.66.843-1.174 1.547-1.74 2.207-.594.693-1.23.685-1.88.026-1.3-1.32-2.612-2.626-3.927-3.93-.614-.61-.65-1.222-.002-1.802.65-.58 1.34-1.117 2.11-1.755-.666-.706-1.08-1.16-1.51-1.595-.958-.97-1.926-1.928-2.89-2.892-1.494-1.496-1.495-1.636-.034-3.1 1.113-1.11 2.227-2.22 3.336-3.334.268-.27.52-.556.882-.94-.666-.674-1.29-1.316-1.927-1.943-.65-.637-.655-1.255-.005-1.898 1.34-1.33 2.672-2.666 4.005-4 .614-.615 1.237-.6 1.816.024.592.638 1.146 1.312 1.82 2.09 1.3-1.3 2.402-2.398 3.503-3.497.443-.444.882-.895 1.335-1.332.913-.882 1.372-.884 2.294.033 1.53 1.522 3.04 3.06 4.787 4.82zm-.064 22.922c.298-.25.547-.432.763-.646 1.364-1.353 2.692-2.743 4.09-4.058.66-.62.572-1.033-.034-1.61-1.365-1.3-2.678-2.656-4.01-3.99-1.108-1.11-1.108-1.11.036-2.254 1.282-1.284 2.537-2.6 3.863-3.84.72-.672.66-1.152-.023-1.796-1.296-1.22-2.565-2.474-3.776-3.778-.704-.76-1.25-.724-1.866.042-.217.27-.483.503-.737.742-1.386 1.31-2.775 2.617-4.162 3.924-1.384-1.32-2.77-2.638-4.15-3.96-.33-.315-.67-.62-.96-.968-.456-.55-.832-.58-1.356-.034-1.428 1.486-2.89 2.94-4.37 4.37-.507.49-.63.888-.037 1.365.162.13.3.29.445.442l4.38 4.61c-1.473 1.565-2.945 3.132-4.42 4.697-.142.153-.283.31-.443.444-.518.434-.5.823-.01 1.3 1.5 1.46 2.985 2.94 4.443 4.444.52.534.89.476 1.38-.03 1.387-1.428 2.836-2.796 4.207-4.238.643-.678 1.104-.745 1.78-.024 1.36 1.45 2.8 2.83 4.213 4.23.214.212.47.382.754.612zM17.54 12.07c.285.21.558.366.774.58 1.07 1.05 2.114 2.13 3.195 3.168.515.498.516.902.002 1.402-1.276 1.24-2.53 2.504-3.78 3.77-.477.482-.93.56-1.437.05-1.106-1.115-2.217-2.224-3.332-3.33-.455-.45-.493-.89-.025-1.355 1.286-1.28 2.562-2.568 3.86-3.838.186-.183.457-.28.74-.447z" fill="#fff" fill-rule="evenodd"/></svg>